Description

Sinopse e detalhes

Mark Kaminsky (Arnold Schwarzenegger) é o xerife de uma pequena cidade, que na verdade se tornou um exílio para ele. Amy (Blanche Baker), sua esposa, não suporta o lugar, onde vivem já há 5 anos. Isto aconteceu pelo fato de Kaminsky ter quebrado vários ossos de um suspeito que raptou, molestou, mutilou e matou uma menina de 11 anos, com o promotor público Baxter (Joe Regalbuto) tendo enc com sua carreira. Agora Baxter quer prender Luigi Petrovita (Sam Wanamaker), chefe das "famílias" fortes de Chicago. Baxter também quer condenar Paulo Rocca (Paul Schenar), o braço direito de Petrovita, mas para isto precisa do depoimento de várias testemunhas. Vários agentes do F.B.I. morreram tentando proteger uma testemunha, sendo que um dos policiais mortos, Blair (Steve Holt), era filho de Harry Shannon (Darren McGavin), um chefe de polícia. Shannon pede para que Kaminsky se infiltre na organização para descobrir o traidor, que foi o responsável pela morte de Blair. Se tiver sucesso Shannon diz que Mark voltará possivelmente ao F.B.I., que tenta por um ano infiltrar alguém na organização mas sempre fracassa, por haver um vazamento interno de informações. Por esta razão só Harry saberá que Kaminsky está envolvido na missão, mas para operar com segurança Mark finge sua morte e se torna Joseph P. Brenner.

Format : Matroska
Format version : Version 2
File size : 466 MiB
Duration : 1h 41mn
Overall bit rate : 644 Kbps
Encoded date : UTC 2013-05-19 10:47:37
Writing application : mkvmerge v5.8.0 ('No Sleep / Pillow') built on Sep 2 2012 15:37:04
Writing library : libebml v1.2.3 + libmatroska v1.3.0

Video
ID : 1
Format : AVC
Format/Info : Advanced Video Codec
Format profile : High@L4.1
Format settings, CABAC : Yes
Format settings, ReFrames : 4 frames
Muxing mode : Header stripping
Codec ID : V_MPEG4/ISO/AVC
Duration : 1h 41mn
Bit rate : 439 Kbps
Width : 704 pixels
Height : 304 pixels
Display aspect ratio : 2.35:1
Frame rate mode : Constant
Frame rate : 29.970 fps
Color space : YUV
Chroma subsampling : 4:2:0
Bit depth : 8 bits
Scan type : Progressive
Bits/(Pixel*Frame) : 0.068
Stream size : 318 MiB (68%)
Title : Jogo Bruto ( by fantasma )
Writing library : x264 core 130 r2273 b3065e6
Encoding settings : cabac=1 / ref=3 / deblock=1:0:0 / analyse=0x3:0x113 / me=hex / subme=7 / psy=1 / psy_rd=1.00:0.00 / mixed_ref=1 / me_range=16 / chroma_me=1 / trellis=1 / 8x8dct=1 / cqm=0 / deadzone=21,11 / fast_pskip=1 / chroma_qp_offset=-2 / threads=3 / lookahead_threads=1 / sliced_threads=0 / nr=0 / decimate=1 / interlaced=0 / bluray_compat=0 / constrained_intra=0 / bframes=3 / b_pyramid=2 / b_adapt=1 / b_bias=0 / direct=1 / weightb=1 / open_gop=0 / weightp=2 / keyint=300 / keyint_min=29 / scenecut=40 / intra_refresh=0 / rc_lookahead=40 / rc=crf / mbtree=1 / crf=23.0 / qcomp=0.60 / qpmin=0 / qpmax=69 / qpstep=4 / vbv_maxrate=62500 / vbv_bufsize=78125 / crf_max=0.0 / nal_hrd=none / ip_ratio=1.40 / aq=1:1.00
Language : Portuguese
Default : Yes
Forced : No

Audio
ID : 2
Format : AC-3
Format/Info : Audio Coding 3
Format profile : Dolby Digital
Mode extension : CM (complete main)
Format settings, Endianness : Big
Muxing mode : Header stripping
Codec ID : A_AC3
Duration : 1h 41mn
Bit rate mode : Constant
Bit rate : 192 Kbps
Channel(s) : 2 channels
Channel positions : Front: L R
Sampling rate : 48.0 KHz
Bit depth : 16 bits
Compression mode : Lossy
Stream size : 139 MiB (30%)
Title : por
Language : Portuguese
Default : Yes
Forced : No

Text #1
ID : 3
Format : VobSub
Muxing mode : zlib
Codec ID : S_VOBSUB
Codec ID/Info : The same subtitle format used on DVDs
Language : Portuguese
Default : No
Forced : No

Text #2
ID : 4
Format : VobSub
Muxing mode : zlib
Codec ID : S_VOBSUB
Codec ID/Info : The same subtitle format used on DVDs
Language : Korean
Default : No
Forced : No

Text #3
ID : 5
Format : UTF-8
Codec ID : S_TEXT/UTF8
Codec ID/Info : UTF-8 Plain Text
Title : Credito
Language : Portuguese
Default : Yes
Forced : No

Menu
00:00:00.000 : en:Chapter 01
00:04:37.133 : en:Chapter 02
00:09:18.067 : en:Chapter 03
00:12:35.668 : en:Chapter 04
00:15:51.868 : en:Chapter 05
00:20:26.769 : en:Chapter 06
00:24:02.902 : en:Chapter 07
00:26:04.803 : en:Chapter 08
00:35:01.003 : en:Chapter 09
00:37:54.937 : en:Chapter 10
00:42:40.304 : en:Chapter 11
00:43:57.871 : en:Chapter 12
00:46:57.472 : en:Chapter 13
00:51:13.872 : en:Chapter 14
00:53:34.172 : en:Chapter 15
00:58:03.506 : en:Chapter 16
01:03:33.539 : en:Chapter 17
01:07:28.173 : en:Chapter 18
01:11:08.007 : en:Chapter 19
01:13:48.908 : en:Chapter 20
01:21:21.442 : en:Chapter 21
01:25:48.842 : en:Chapter 22
01:35:18.875 : en:Chapter 23
01:37:53.476 : en:Chapter 24